<svg width="21" height="21" viewBox="0 0 21 21" fill="none" xmlns="http://www.w3.org/2000/svg">
<path d="M14.69 0.868164H6.31C2.67 0.868164 0.5 3.03816 0.5 6.67816V15.0482C0.5 18.6982 2.67 20.8682 6.31 20.8682H14.68C18.32 20.8682 20.49 18.6982 20.49 15.0582V6.67816C20.5 3.03816 18.33 0.868164 14.69 0.868164ZM10 16.1182C10 16.4782 9.64 16.7182 9.31 16.5782C8.1 16.0582 6.52 15.5782 5.42 15.4382L5.23 15.4182C4.62 15.3382 4.12 14.7682 4.12 14.1482V6.44816C4.12 5.67816 4.74 5.10816 5.5 5.16816C6.75 5.26816 8.6 5.86816 9.76 6.52816C9.92 6.61816 10 6.78816 10 6.95816V16.1182ZM16.88 14.1382C16.88 14.7582 16.38 15.3282 15.77 15.4082L15.56 15.4282C14.47 15.5782 12.9 16.0482 11.69 16.5582C11.36 16.6982 11 16.4582 11 16.0982V6.94816C11 6.76816 11.09 6.59816 11.25 6.50816C12.41 5.85816 14.22 5.27816 15.45 5.16816H15.49C16.26 5.16816 16.88 5.78816 16.88 6.55816V14.1382Z" fill="#292D32"/>
</svg>
