<svg width="19" height="20" viewBox="0 0 19 20" fill="none" xmlns="http://www.w3.org/2000/svg">
<path d="M17.2757 8.63006L12.6057 6.62006L11.5657 6.18006C11.4057 6.10006 11.2657 5.89006 11.2657 5.71006V2.65006C11.2657 1.69006 10.5557 0.550059 9.69567 0.110059C9.39567 -0.0399414 9.03568 -0.0399414 8.73568 0.110059C7.88568 0.550059 7.17567 1.70006 7.17567 2.66006V5.72006C7.17567 5.90006 7.03567 6.11006 6.87567 6.19006L1.17568 8.64006C0.545675 8.90006 0.035675 9.69006 0.035675 10.3701V11.6901C0.035675 12.5401 0.675675 12.9601 1.46567 12.6201L6.47568 10.4601C6.86567 10.2901 7.18568 10.5001 7.18568 10.9301V12.0401V13.8401C7.18568 14.0701 7.05568 14.4001 6.89568 14.5601L4.57568 16.8901C4.33568 17.1301 4.22568 17.6001 4.33568 17.9401L4.78568 19.3001C4.96567 19.8901 5.63567 20.1701 6.18568 19.8901L8.56568 17.8901C8.92568 17.5801 9.51568 17.5801 9.87568 17.8901L12.2557 19.8901C12.8057 20.1601 13.4757 19.8901 13.6757 19.3001L14.1257 17.9401C14.2357 17.6101 14.1257 17.1301 13.8857 16.8901L11.5657 14.5601C11.3957 14.4001 11.2657 14.0701 11.2657 13.8401V10.9301C11.2657 10.5001 11.5757 10.3001 11.9757 10.4601L16.9857 12.6201C17.7757 12.9601 18.4157 12.5401 18.4157 11.6901V10.3701C18.4157 9.69006 17.9057 8.90006 17.2757 8.63006Z" fill="#7F7F7F"/>
</svg>
