<svg width="19" height="20" viewBox="0 0 19 20" fill="none" xmlns="http://www.w3.org/2000/svg">
<path d="M17.3994 8.63006L12.7294 6.62006L11.6894 6.18006C11.5294 6.10006 11.3894 5.89006 11.3894 5.71006V2.65006C11.3894 1.69006 10.6794 0.550059 9.81936 0.110059C9.51936 -0.0399414 9.15936 -0.0399414 8.85936 0.110059C8.00936 0.550059 7.29936 1.70006 7.29936 2.66006V5.72006C7.29936 5.90006 7.15936 6.11006 6.99936 6.19006L1.29936 8.64006C0.669363 8.90006 0.159363 9.69006 0.159363 10.3701V11.6901C0.159363 12.5401 0.799363 12.9601 1.58936 12.6201L6.59936 10.4601C6.98936 10.2901 7.30936 10.5001 7.30936 10.9301V12.0401V13.8401C7.30936 14.0701 7.17936 14.4001 7.01936 14.5601L4.69936 16.8901C4.45936 17.1301 4.34936 17.6001 4.45936 17.9401L4.90936 19.3001C5.08936 19.8901 5.75936 20.1701 6.30936 19.8901L8.68936 17.8901C9.04936 17.5801 9.63936 17.5801 9.99936 17.8901L12.3794 19.8901C12.9294 20.1601 13.5994 19.8901 13.7994 19.3001L14.2494 17.9401C14.3594 17.6101 14.2494 17.1301 14.0094 16.8901L11.6894 14.5601C11.5194 14.4001 11.3894 14.0701 11.3894 13.8401V10.9301C11.3894 10.5001 11.6994 10.3001 12.0994 10.4601L17.1094 12.6201C17.8994 12.9601 18.5394 12.5401 18.5394 11.6901V10.3701C18.5394 9.69006 18.0294 8.90006 17.3994 8.63006Z" fill="black"/>
</svg>
