<svg width="25" height="24" viewBox="0 0 25 24" fill="none" xmlns="http://www.w3.org/2000/svg">
<path d="M11.6694 3H5.43937C3.44937 3 2.44937 4.01 2.44937 6.02V22H7.84937V18.25C7.84937 17.84 8.18937 17.5 8.59937 17.5C9.00937 17.5 9.34937 17.83 9.34937 18.25V22H14.6494V6.02C14.6494 4.01 13.6594 3 11.6694 3ZM11.0994 12.75H6.14937C5.73937 12.75 5.39937 12.41 5.39937 12C5.39937 11.59 5.73937 11.25 6.14937 11.25H11.0994C11.5094 11.25 11.8494 11.59 11.8494 12C11.8494 12.41 11.5094 12.75 11.0994 12.75ZM11.0994 9H6.14937C5.73937 9 5.39937 8.66 5.39937 8.25C5.39937 7.84 5.73937 7.5 6.14937 7.5H11.0994C11.5094 7.5 11.8494 7.84 11.8494 8.25C11.8494 8.66 11.5094 9 11.0994 9Z" fill="#292D32"/>
<path d="M23.3494 21.25H21.0794V18.25C22.0294 17.94 22.7194 17.05 22.7194 16V14C22.7194 12.69 21.6494 11.62 20.3394 11.62C19.0294 11.62 17.9594 12.69 17.9594 14V16C17.9594 17.04 18.6394 17.92 19.5694 18.24V21.25H1.34937C0.939365 21.25 0.599365 21.59 0.599365 22C0.599365 22.41 0.939365 22.75 1.34937 22.75H20.2794C20.2994 22.75 20.3094 22.76 20.3294 22.76C20.3494 22.76 20.3594 22.75 20.3794 22.75H23.3494C23.7594 22.75 24.0994 22.41 24.0994 22C24.0994 21.59 23.7594 21.25 23.3494 21.25Z" fill="#292D32"/>
</svg>
