<svg width="42" height="42" viewBox="0 0 42 42" fill="none" xmlns="http://www.w3.org/2000/svg">
<path d="M29.7292 0.166687H12.2708C4.68749 0.166687 0.166656 4.68752 0.166656 12.2709V29.7084C0.166656 37.3125 4.68749 41.8334 12.2708 41.8334H29.7083C37.2917 41.8334 41.8125 37.3125 41.8125 29.7292V12.2709C41.8333 4.68752 37.3125 0.166687 29.7292 0.166687ZM24.7292 27.25C25.3333 27.8542 25.3333 28.8542 24.7292 29.4584C24.4167 29.7709 24.0208 29.9167 23.625 29.9167C23.2292 29.9167 22.8333 29.7709 22.5208 29.4584L15.1667 22.1042C14.5625 21.5 14.5625 20.5 15.1667 19.8959L22.5208 12.5417C23.125 11.9375 24.125 11.9375 24.7292 12.5417C25.3333 13.1459 25.3333 14.1459 24.7292 14.75L18.4792 21L24.7292 27.25Z" fill="#292D32" fill-opacity="0.5"/>
</svg>
