<svg width="21" height="21" viewBox="0 0 21 21" fill="none" xmlns="http://www.w3.org/2000/svg">
<path d="M14.69 0.5H6.31C2.67 0.5 0.5 2.67 0.5 6.31V14.68C0.5 18.33 2.67 20.5 6.31 20.5H14.68C18.32 20.5 20.49 18.33 20.49 14.69V6.31C20.5 2.67 18.33 0.5 14.69 0.5ZM17.03 11.03L12.74 15.32C12.59 15.47 12.4 15.54 12.21 15.54C12.02 15.54 11.83 15.47 11.68 15.32C11.39 15.03 11.39 14.55 11.68 14.26L14.69 11.25H4.5C4.09 11.25 3.75 10.91 3.75 10.5C3.75 10.09 4.09 9.75 4.5 9.75H14.69L11.68 6.74C11.39 6.45 11.39 5.97 11.68 5.68C11.97 5.39 12.45 5.39 12.74 5.68L17.03 9.97C17.17 10.11 17.25 10.3 17.25 10.5C17.25 10.7 17.17 10.89 17.03 11.03Z" fill="#292D32"/>
</svg>
