<svg width="42" height="42" viewBox="0 0 42 42" fill="none" xmlns="http://www.w3.org/2000/svg">
<path d="M29.7292 0.166687H12.2708C4.68749 0.166687 0.166656 4.68752 0.166656 12.2709V29.7084C0.166656 37.3125 4.68749 41.8334 12.2708 41.8334H29.7083C37.2917 41.8334 41.8125 37.3125 41.8125 29.7292V12.2709C41.8333 4.68752 37.3125 0.166687 29.7292 0.166687ZM26.8125 22.1042L19.4583 29.4584C19.1458 29.7709 18.75 29.9167 18.3542 29.9167C17.9583 29.9167 17.5625 29.7709 17.25 29.4584C16.6458 28.8542 16.6458 27.8542 17.25 27.25L23.5 21L17.25 14.75C16.6458 14.1459 16.6458 13.1459 17.25 12.5417C17.8542 11.9375 18.8542 11.9375 19.4583 12.5417L26.8125 19.8959C27.4375 20.5 27.4375 21.5 26.8125 22.1042Z" fill="#177BA5"/>
</svg>
